# xmcd
#
# Track frame offsets:
#	150
#	15983
#	40031
#	61559
#	78264
#	93762
#	110678
#	122316
#	138456
#	153609
#	171327
#	189172
#	206762
#	224054
#	241532
#	263393
#	286050
#	305966
#
# Disc length: 4315
#
# Revision: 3
# Processed by: cddbd v1.5.1PL0 Copyright (c) Steve Scherf et al.
# Submitted via: EasyCDDAExtractor 8.0.2.1
# Normalized: r2:DSETVAR1
#
DISCID=e710d912
DTITLE=Various Artist - BLACK VELVET CD 3
DYEAR=2005
DGENRE=Blues
TTITLE0=Alicia Keys - Fallin
TTITLE1=R.Kelly - I Believe i can fly
TTITLE2=Billy Paul - Me&Mrs Jones
TTITLE3=Patti Austin - Baby,Come To Me(Duet with James Ingram)
TTITLE4=Harold Melvin and The Blue Notes - If You Don't Know Me By Now
TTITLE5=The Moments - Love On A Two
TTITLE6=The Three Degrres - When Will I See You Again
TTITLE7=Mellanie Williams and Joe Roberts - You Are Everything
TTITLE8=The Delfonics - Didn't I(Blow Your Mind This Time)
TTITLE9=Bill Withers - Lean On Me
TTITLE10=Portrait - How Deep Is Your Love
TTITLE11=Des'Ree - feel So High
TTITLE12=Terence Trend Darby - Delicate
TTITLE13=Sly and The Family Stone - Family Affair
TTITLE14=Billy Ocean - There'll Be Sad Songs(To Make You Cry)
TTITLE15=Nina Simone - Mr Bojangles
TTITLE16=Earth Wind and Fire - After The Love Has Gone
TTITLE17=Rose Royce - Wishing On A Star
EXTD=
EXTT0=
EXTT1=
EXTT2=
EXTT3=
EXTT4=
EXTT5=
EXTT6=
EXTT7=
EXTT8=
EXTT9=
EXTT10=
EXTT11=
EXTT12=
EXTT13=
EXTT14=
EXTT15=
EXTT16=
EXTT17=
PLAYORDER=
